<svg width="1024" height="1024" viewBox="0 0 1024 1024" fill="none" xmlns="http://www.w3.org/2000/svg">
  <defs>
    <linearGradient id="bg" x1="148" y1="98" x2="876" y2="940" gradientUnits="userSpaceOnUse">
      <stop stop-color="#2E8B57"/>
      <stop offset="1" stop-color="#146C43"/>
    </linearGradient>
    <filter id="shadow" x="164" y="164" width="730" height="746" filterUnits="userSpaceOnUse" color-interpolation-filters="sRGB">
      <feDropShadow dx="0" dy="28" stdDeviation="30" flood-color="#073B25" flood-opacity="0.32"/>
    </filter>
  </defs>
  <rect width="1024" height="1024" fill="url(#bg)"/>
  <circle cx="820" cy="184" r="162" fill="#FFF7E8" opacity="0.08"/>
  <circle cx="168" cy="820" r="220" fill="#FFF7E8" opacity="0.07"/>
  <g filter="url(#shadow)">
    <path d="M218 266C218 193.098 277.098 134 350 134H674C746.902 134 806 193.098 806 266V836H218V266Z" fill="#FFF7E8"/>
    <path d="M278 260C278 230.177 302.177 206 332 206H692C721.823 206 746 230.177 746 260V310H278V260Z" fill="#F4B400"/>
    <path d="M308 428H716" stroke="#146C43" stroke-width="36" stroke-linecap="round"/>
    <path d="M308 535H652" stroke="#2E8B57" stroke-width="30" stroke-linecap="round" opacity="0.55"/>
    <path d="M308 630H586" stroke="#2E8B57" stroke-width="30" stroke-linecap="round" opacity="0.42"/>
  </g>
  <circle cx="735" cy="698" r="154" fill="#F4B400"/>
  <path d="M735 584V794" stroke="#146C43" stroke-width="42" stroke-linecap="round"/>
  <path d="M681 636H789" stroke="#146C43" stroke-width="34" stroke-linecap="round"/>
  <path d="M681 743H789" stroke="#146C43" stroke-width="34" stroke-linecap="round"/>
  <circle cx="801" cy="274" r="78" fill="#D9534F"/>
  <text x="512" y="487" text-anchor="middle" fill="#146C43" font-family="Arial Rounded MT Bold, Arial, Helvetica, sans-serif" font-size="164" font-weight="900" letter-spacing="-7">WDO</text>
</svg>
