<svg width="1024" height="1024" viewBox="0 0 1024 1024" fill="none" xmlns="http://www.w3.org/2000/svg">
  <rect width="1024" height="1024" fill="#146C43"/>
  <path d="M230 284C230 218.83 282.83 166 348 166H676C741.17 166 794 218.83 794 284V828H230V284Z" fill="#FFF7E8"/>
  <path d="M290 274C290 247.49 311.49 226 338 226H686C712.51 226 734 247.49 734 274V320H290V274Z" fill="#F4B400"/>
  <path d="M318 430H706" stroke="#146C43" stroke-width="34" stroke-linecap="round"/>
  <text x="512" y="490" text-anchor="middle" fill="#146C43" font-family="Arial Rounded MT Bold, Arial, Helvetica, sans-serif" font-size="164" font-weight="900" letter-spacing="-7">WDO</text>
  <circle cx="734" cy="696" r="144" fill="#F4B400"/>
  <path d="M734 592V785" stroke="#146C43" stroke-width="40" stroke-linecap="round"/>
  <path d="M682 641H786" stroke="#146C43" stroke-width="32" stroke-linecap="round"/>
  <path d="M682 740H786" stroke="#146C43" stroke-width="32" stroke-linecap="round"/>
  <circle cx="800" cy="276" r="74" fill="#D9534F"/>
</svg>
