<svg width="1800" height="520" viewBox="0 0 1800 520" fill="none" xmlns="http://www.w3.org/2000/svg">
  <rect width="1800" height="520" rx="96" fill="#FAF8F1"/>
  <rect x="96" y="88" width="344" height="344" rx="88" fill="#0B3D2E"/>
  <path d="M153 182C153 144.997 182.997 115 220 115H316C353.003 115 383 144.997 383 182V281C383 318.003 353.003 348 316 348H282L209 421C198.254 431.746 180 424.135 180 408.941V348C164.536 348 153 336.464 153 321V182Z" fill="#FFFDF8"/>
  <circle cx="218" cy="235" r="24" fill="#F5A524"/>
  <circle cx="268" cy="235" r="24" fill="#94B7A5"/>
  <circle cx="318" cy="235" r="24" fill="#F5A524"/>
  <path d="M268 189V294" stroke="#0B3D2E" stroke-width="18" stroke-linecap="round"/>
  <path d="M243 214H293" stroke="#0B3D2E" stroke-width="15" stroke-linecap="round"/>
  <path d="M243 268H293" stroke="#0B3D2E" stroke-width="15" stroke-linecap="round"/>
  <circle cx="349" cy="343" r="47" fill="#F5A524"/>
  <path d="M342 324C346 314 356 307 369 307C386 307 398 318 398 333C398 346 390 354 379 361C369 367 363 372 363 384" stroke="#0B3D2E" stroke-width="13" stroke-linecap="round"/>
  <path d="M363 404H363.4" stroke="#0B3D2E" stroke-width="15" stroke-linecap="round"/>
  <text x="500" y="246" fill="#0B3D2E" font-family="Arial, Helvetica, sans-serif" font-size="104" font-weight="800" letter-spacing="-2">Who Dey Owe?</text>
  <text x="506" y="330" fill="#65706B" font-family="Arial, Helvetica, sans-serif" font-size="42" font-weight="700">Know who owes you. Remind them fast.</text>
</svg>
