<svg width="1024" height="1024" viewBox="0 0 1024 1024" fill="none" xmlns="http://www.w3.org/2000/svg">
  <rect width="1024" height="1024" fill="#FAF8F1"/>
  <rect x="256" y="156" width="512" height="512" rx="136" fill="#0B3D2E"/>
  <path d="M330 295C330 245.294 370.294 205 420 205H604C653.706 205 694 245.294 694 295V442C694 491.706 653.706 532 604 532H542L426 648C411.826 662.174 387.5 652.137 387.5 632.09V532H420C370.294 532 330 491.706 330 442V295Z" fill="#FFFDF8"/>
  <circle cx="430" cy="371" r="39" fill="#F5A524"/>
  <circle cx="512" cy="371" r="39" fill="#94B7A5"/>
  <circle cx="594" cy="371" r="39" fill="#F5A524"/>
  <path d="M512 300V454" stroke="#0B3D2E" stroke-width="27" stroke-linecap="round"/>
  <path d="M473 336H551" stroke="#0B3D2E" stroke-width="22" stroke-linecap="round"/>
  <path d="M473 416H551" stroke="#0B3D2E" stroke-width="22" stroke-linecap="round"/>
  <circle cx="656" cy="593" r="70" fill="#F5A524"/>
  <path d="M644 568C649 554 662 545 679 545C701 545 717 560 717 579C717 596 706 607 692 615C679 623 671 630 671 645" stroke="#0B3D2E" stroke-width="20" stroke-linecap="round"/>
  <path d="M671 678H671.4" stroke="#0B3D2E" stroke-width="23" stroke-linecap="round"/>
  <text x="512" y="770" text-anchor="middle" fill="#0B3D2E" font-family="Arial, Helvetica, sans-serif" font-size="76" font-weight="800" letter-spacing="-1">Who Dey Owe?</text>
  <text x="512" y="834" text-anchor="middle" fill="#65706B" font-family="Arial, Helvetica, sans-serif" font-size="32" font-weight="700">Know who owes you. Remind them fast.</text>
</svg>
