<svg width="1024" height="1024" viewBox="0 0 1024 1024" fill="none" xmlns="http://www.w3.org/2000/svg">
  <rect width="1024" height="1024" fill="#FFF7E8"/>
  <rect x="256" y="138" width="512" height="512" rx="136" fill="#146C43"/>
  <path d="M340 244C340 203.131 373.131 170 414 170H610C650.869 170 684 203.131 684 244V604H340V244Z" fill="#FFF7E8"/>
  <path d="M384 240C384 223.431 397.431 210 414 210H610C626.569 210 640 223.431 640 240V278H384V240Z" fill="#F4B400"/>
  <path d="M404 356H620" stroke="#146C43" stroke-width="22" stroke-linecap="round"/>
  <path d="M404 426H586" stroke="#2E8B57" stroke-width="18" stroke-linecap="round" opacity="0.55"/>
  <text x="512" y="394" text-anchor="middle" fill="#146C43" font-family="Arial Rounded MT Bold, Arial, Helvetica, sans-serif" font-size="88" font-weight="900" letter-spacing="-3">WDO</text>
  <circle cx="650" cy="542" r="98" fill="#F4B400"/>
  <path d="M650 468V616" stroke="#146C43" stroke-width="30" stroke-linecap="round"/>
  <path d="M612 505H688" stroke="#146C43" stroke-width="24" stroke-linecap="round"/>
  <path d="M612 580H688" stroke="#146C43" stroke-width="24" stroke-linecap="round"/>
  <circle cx="670" cy="244" r="58" fill="#D9534F"/>
  <text x="512" y="766" text-anchor="middle" fill="#146C43" font-family="Arial Rounded MT Bold, Arial, Helvetica, sans-serif" font-size="76" font-weight="900" letter-spacing="-1">Who Dey Owe?</text>
  <text x="512" y="830" text-anchor="middle" fill="#65706B" font-family="Arial, Helvetica, sans-serif" font-size="32" font-weight="700">Simple debt tracking for Nigerian traders</text>
</svg>
